<svg width="130" height="52" viewBox="0 0 130 52" fill="none" xmlns="http://www.w3.org/2000/svg">
<path d="M120.488 33.8497H116.95C116.218 33.8497 115.607 33.3649 115.607 32.759C115.607 32.0318 116.218 31.6682 116.95 31.6682H123.416L124.881 28.3985H116.95C113.657 28.3985 111.825 30.3351 111.825 32.8801C111.825 35.4252 113.657 37.1194 116.462 37.1194H120C120.732 37.1194 121.343 37.6041 121.343 38.2101C121.343 38.8161 120.855 39.3008 120 39.3008H112.192V42.5705H120C123.294 42.5705 125.125 40.634 125.125 37.9677C125.125 35.3015 123.416 33.8497 120.488 33.8497ZM106.214 33.8497H102.676C101.944 33.8497 101.334 33.3649 101.334 32.759C101.334 32.0318 101.944 31.6682 102.676 31.6682H109.142L110.607 28.3985H102.676C99.3827 28.3985 97.5539 30.3351 97.5539 32.8801C97.5539 35.4252 99.3827 37.1194 102.191 37.1194H105.729C106.461 37.1194 107.072 37.6041 107.072 38.2101C107.072 38.8161 106.583 39.3008 105.729 39.3008H97.9202V42.5705H105.729C109.022 42.5705 110.851 40.634 110.851 37.9677C110.973 35.304 109.267 33.8497 106.214 33.8497ZM83.6463 42.6892H95.8473V39.4195H87.5505V37.1194H95.7252V33.8497H87.5505V31.5495H95.8473V28.2799H83.6463V42.6917V42.6892ZM76.0821 34.4557H72.0557V31.5495H76.0821C77.1808 31.5495 77.7913 32.2767 77.7913 33.0039C77.7913 33.8522 77.1808 34.4582 76.0821 34.4582M81.6929 32.8827C81.6929 30.0978 79.7395 28.2799 76.5679 28.2799H68.149V42.6917H72.0532V37.7279H73.5182L77.9108 42.6917H82.5475L77.7887 37.4855C80.2279 36.8795 81.6929 35.1853 81.6929 32.8827ZM60.8315 34.7006H56.6831V31.5521H60.8315C61.9302 31.5521 62.5407 32.2792 62.5407 33.1276C62.5407 33.9759 62.0523 34.7031 60.8315 34.7031M61.3198 28.2849H52.901V42.6968H56.8052V37.9728H61.3198C64.6136 37.9728 66.567 35.915 66.567 33.1276C66.4449 30.2215 64.494 28.2824 61.3198 28.2824M52.171 28.2824H47.1705L43.5105 32.6428L39.7284 28.2824H34.6033L41.0688 35.4277L34.4812 42.6942H39.4817L43.3859 38.0914L47.2901 42.6942H52.4126L45.825 35.3065L52.1684 28.2824H52.171ZM21.7944 42.6942H33.9929V39.4246H25.574V37.1244H33.7487V33.8547H25.574V31.5546H33.9929V28.2849H21.7944V42.6968V42.6942ZM119.023 18.5895L113.046 9.87119H108.165V24.1618H112.069V15.0774L118.169 24.1593H122.805V9.87119H119.023V18.592V18.5895ZM96.5747 18.1047L98.6476 13.2595L100.721 18.1047H96.5722H96.5747ZM96.0864 9.86867L89.743 24.2805H94.0135L95.2343 21.3744H101.944L103.165 24.2805H107.557L101.092 9.87119H96.0889L96.0864 9.86867ZM83.3996 17.1352V16.8928C83.3996 14.7139 84.6205 13.2595 87.0596 13.2595H91.3301V9.75H86.6934C81.9346 9.75 79.4954 12.7773 79.4954 16.7741V17.0165C79.4954 21.4981 82.3008 24.0406 86.5713 24.0406H87.9142L89.4988 20.771H87.1817C84.8646 20.8922 83.3996 19.559 83.3996 17.1377M73.6403 24.1618H77.5445V9.87119H73.6403V24.1618ZM66.0761 15.9258H62.0498V13.0197H66.0761C67.1749 13.0197 67.7853 13.7468 67.7853 14.474C67.7853 15.3223 67.1749 15.9283 66.0761 15.9283M71.687 14.474C71.687 11.6891 69.7336 9.87119 66.5644 9.87119H58.1456V24.283H62.0498V19.198H63.5148L67.9074 24.1644H72.6662L67.7878 18.9581C70.227 18.4734 71.692 16.658 71.692 14.4765M43.3884 24.1644H55.5868V20.8947H47.2901V18.5945H55.3427V15.3249H47.2901V13.0247H55.5868V9.87119H43.3884V24.1618V24.1644ZM31.0679 18.8344L27.7716 9.87119H21.7944V24.1618H25.5766V13.868L29.3587 24.1618H32.7745L36.5567 13.868V24.1618H40.4609V9.87119H34.3617L31.0679 18.8319V18.8344ZM10.0843 18.1073L12.1573 13.2621L14.2302 18.1073H10.0818H10.0843ZM9.59345 9.87119L3.25006 24.1618H7.52053L8.74139 21.2557H15.451L16.6719 24.1618H21.0645L14.5964 9.87119H9.59345Z" fill="#006FCF"/>
</svg>
