<svg width="130" height="52" viewBox="0 0 130 52" fill="none" xmlns="http://www.w3.org/2000/svg">
<path fill-rule="evenodd" clip-rule="evenodd" d="M38.1898 12.6407C37.1995 13.8207 35.6149 14.7513 34.0304 14.6184C33.8323 13.0229 34.6081 11.3278 35.5159 10.2807C36.5062 9.06752 38.2393 8.20332 39.6423 8.13684C39.8074 9.79878 39.1636 11.4275 38.1898 12.6407ZM39.6257 14.9342C38.2297 14.8533 36.956 15.3569 35.9271 15.7637C35.2651 16.0254 34.7044 16.2471 34.2778 16.2471C33.7992 16.2471 33.2154 16.0136 32.5599 15.7514C31.701 15.4078 30.719 15.015 29.6892 15.0339C27.3289 15.0671 25.1337 16.4133 23.9287 18.5572C21.4529 22.845 23.285 29.1936 25.6783 32.6836C26.8503 34.412 28.2532 36.3066 30.1019 36.2402C30.9152 36.2093 31.5002 35.9593 32.1057 35.7006C32.8027 35.4028 33.5268 35.0934 34.6575 35.0934C35.7489 35.0934 36.4414 35.3947 37.1061 35.684C37.7381 35.959 38.3451 36.2231 39.2461 36.2069C41.1607 36.1737 42.3657 34.4785 43.5376 32.7501C44.8022 30.8951 45.358 29.0846 45.4424 28.8099C45.4472 28.7942 45.4505 28.7835 45.4522 28.7781C45.4502 28.776 45.4346 28.7689 45.4071 28.7562L45.407 28.7561C44.9843 28.5613 41.7529 27.0718 41.7219 23.0776C41.6908 19.7252 44.2849 18.0266 44.6933 17.7592C44.7182 17.7429 44.7349 17.7319 44.7425 17.7262C43.0919 15.2666 40.517 15.0007 39.6257 14.9342ZM52.8799 36.0242V10.1146H62.5358C67.5206 10.1146 71.0033 13.5715 71.0033 18.6237C71.0033 23.676 67.4545 27.1661 62.4038 27.1661H56.8743V36.0242H52.8799ZM56.8741 13.5048H61.4792C64.9454 13.5048 66.9261 15.3662 66.9261 18.6402C66.9261 21.9142 64.9454 23.7922 61.4627 23.7922H56.8741V13.5048ZM84.1915 32.9161C83.1352 34.9437 80.8079 36.2234 78.299 36.2234C74.5852 36.2234 71.9938 33.9964 71.9938 30.6393C71.9938 27.3154 74.5026 25.4042 79.1408 25.1217L84.1255 24.8225V23.3933C84.1255 21.2826 82.7555 20.1359 80.3127 20.1359C78.299 20.1359 76.83 21.1829 76.5329 22.7784H72.9346C73.0501 19.4213 76.1862 16.9782 80.4282 16.9782C85.0003 16.9782 87.9714 19.388 87.9714 23.1274V36.024H84.2741V32.9161H84.1915ZM79.3716 33.1489C77.2424 33.1489 75.8889 32.1185 75.8889 30.5397C75.8889 28.911 77.1929 27.9637 79.6852 27.8141L84.1253 27.5316V28.9941C84.1253 31.4205 82.0786 33.1489 79.3716 33.1489ZM100.235 37.038C98.634 41.5751 96.8018 43.0708 92.9065 43.0708C92.6094 43.0708 91.619 43.0376 91.3879 42.9711V39.8633C91.6355 39.8965 92.2462 39.9298 92.5598 39.9298C94.326 39.9298 95.3163 39.1819 95.927 37.2374L96.2902 36.0907L89.5228 17.2277H93.6987L98.4029 32.5342H98.4854L103.19 17.2277H107.25L100.235 37.038Z" fill="black"/>
</svg>
