<svg width="130" height="52" viewBox="0 0 130 52" fill="none" xmlns="http://www.w3.org/2000/svg">
<path d="M100.214 31.6144H100.274L105.325 18.9386H108.875L97.9629 44.3527H94.5957L98.6523 35.463L91.4922 18.9386H95.042L100.214 31.6144ZM83.1348 18.3624C85.5485 18.3624 87.4559 19.021 88.8555 20.3175C90.2548 21.6139 90.9443 23.4251 90.9443 25.7091V36.5948H87.8203V34.1456H87.6787C86.3197 36.1623 84.5347 37.171 82.2832 37.171C80.3765 37.171 78.7535 36.5949 77.4756 35.4425C76.2182 34.3725 75.5083 32.7879 75.5488 31.1212C75.5488 29.2897 76.2386 27.8486 77.5977 26.7579C78.9566 25.6674 80.7821 25.133 83.0537 25.1329C85.0008 25.1329 86.5833 25.5027 87.8408 26.2023V25.4415C87.8408 24.3097 87.3539 23.239 86.502 22.4982C85.6298 21.7164 84.5144 21.2844 83.3584 21.2843C81.533 21.2843 80.0928 22.0663 79.0381 23.63L76.1572 21.799C77.6987 19.5148 80.0315 18.3625 83.1348 18.3624ZM67.6582 10.7892C69.7474 10.748 71.7761 11.5507 73.2568 13.0323C76.2181 15.831 76.4007 20.5434 73.6221 23.5685L73.2568 23.9396C71.7356 25.4006 69.8691 26.1407 67.6582 26.1407H62.2627V36.5948H58.9971V10.7892H67.6582ZM83.5615 27.8077C82.2433 27.8078 81.1278 28.1369 80.2354 28.7745C79.363 29.4125 78.916 30.2155 78.916 31.1827C78.9161 32.0468 79.322 32.849 79.9912 33.3429C80.7215 33.9191 81.6144 34.2287 82.5273 34.2081C83.9069 34.2081 85.2254 33.652 86.1992 32.6642C87.2744 31.6352 87.8223 30.421 87.8223 29.0216C86.8079 28.1985 85.3873 27.7872 83.5615 27.8077ZM62.2627 22.9718H67.7402C68.9574 23.013 70.1341 22.5187 70.9658 21.6339C72.6698 19.8437 72.6298 16.9632 70.8652 15.2345C70.0335 14.4113 68.9169 13.9581 67.7402 13.9581H62.2627V22.9718Z" fill="#3C4043"/>
<path d="M50.9883 23.8773C50.9883 22.8689 50.9072 21.8606 50.7449 20.8728H36.9722V26.5731H44.8626C44.538 28.4046 43.4833 30.0509 41.9417 31.0799V34.784H46.6476C49.4062 32.2117 50.9883 28.4046 50.9883 23.8773Z" fill="#4285F4"/>
<path d="M36.9729 38.3647C40.908 38.3647 44.2346 37.0476 46.6483 34.784L41.9425 31.0798C40.624 31.9852 38.9405 32.4997 36.9729 32.4997C33.1596 32.4997 29.9344 29.8862 28.7783 26.3878H23.9304V30.2155C26.4051 35.2161 31.4557 38.3647 36.9729 38.3647Z" fill="#34A853"/>
<path d="M28.7787 26.3878C28.1701 24.5563 28.1701 22.5602 28.7787 20.7081V16.901H23.9301C21.8405 21.0785 21.8405 26.0174 23.9301 30.1949L28.7787 26.3878Z" fill="#FBBC04"/>
<path d="M36.9729 14.5962C39.0622 14.555 41.0703 15.3576 42.5713 16.8187L46.7498 12.5795C44.0926 10.0689 40.6037 8.69008 36.9729 8.73124C31.4557 8.73124 26.4051 11.9004 23.9304 16.901L28.7783 20.7287C29.9344 17.2097 33.1596 14.5962 36.9729 14.5962Z" fill="#EA4335"/>
</svg>
