<svg width="130" height="52" viewBox="0 0 130 52" fill="none" xmlns="http://www.w3.org/2000/svg">
<path d="M78.4474 4.875C90.406 4.87524 100.101 14.4542 100.101 26.2705C100.101 38.0869 90.4061 47.6667 78.4474 47.667C73.0872 47.667 68.1819 45.7416 64.4005 42.5537C60.6193 45.7411 55.7154 47.667 50.3556 47.667C38.3968 47.6669 28.7023 38.087 28.7023 26.2705C28.7024 14.4541 38.3969 4.8751 50.3556 4.875C55.7152 4.875 60.6193 6.8001 64.4005 9.9873C68.1818 6.7996 73.0873 4.875 78.4474 4.875Z" fill="#ED0006"/>
<path d="M78.4471 4.875C90.4057 4.87523 100.1 14.4542 100.1 26.2705C100.1 38.087 90.4058 47.6668 78.4471 47.667C73.0871 47.667 68.1825 45.7413 64.4012 42.5537C69.0565 38.6293 72.0096 32.7909 72.0096 26.2705C72.0095 19.7501 69.0566 13.9116 64.4012 9.9873C68.1824 6.79989 73.0873 4.875 78.4471 4.875Z" fill="#F9A000"/>
<path d="M64.4009 9.98767C69.0564 13.9121 72.0093 19.7503 72.0093 26.2709C72.0093 32.7914 69.0564 38.6297 64.4009 42.5541C59.7457 38.6297 56.7935 32.7912 56.7935 26.2709C56.7935 19.7506 59.7457 13.9121 64.4009 9.98767Z" fill="#FF5E00"/>
</svg>
