<svg width="130" height="52" viewBox="0 0 130 52" fill="none" xmlns="http://www.w3.org/2000/svg">
<path d="M50.2489 19.1778H43.7746C43.3317 19.1778 42.9548 19.4888 42.8855 19.9121L40.267 35.9654C40.2211 36.2501 40.4224 36.5168 40.7169 36.5616C40.7445 36.5657 40.7726 36.5679 40.8012 36.5679H43.8921C44.3354 36.5679 44.7123 36.256 44.7811 35.8328L45.4876 31.5028C45.556 31.08 45.9328 30.7681 46.3757 30.7676H48.4254C52.6904 30.7676 55.1516 28.7721 55.7944 24.8174C56.0842 23.0873 55.8066 21.7278 54.969 20.7758C54.0486 19.7306 52.4166 19.1774 50.2499 19.1774L50.2489 19.1778ZM50.9957 25.0411C50.6417 27.2873 48.8664 27.2873 47.1501 27.2873H46.173L46.8584 23.0922C46.9001 22.8387 47.1257 22.6518 47.3912 22.6518H47.8388C49.0078 22.6518 50.1108 22.6518 50.6806 23.2964C51.0205 23.6807 51.1244 24.252 50.9947 25.0411H50.9957ZM69.6022 24.9686H66.502C66.2365 24.9686 66.0104 25.1556 65.9692 25.4091L65.832 26.2475L65.6153 25.9437C64.9439 25.0017 63.4472 24.6871 61.9532 24.6871C58.5271 24.6871 55.6006 27.1963 55.0308 30.716C54.7345 32.4715 55.1558 34.1506 56.1858 35.3212C57.1306 36.3977 58.4827 36.8463 60.0908 36.8463C62.8516 36.8463 64.3821 35.1302 64.3821 35.1302L64.244 35.9631C64.1967 36.2479 64.3975 36.5154 64.6916 36.5607C64.7196 36.5652 64.7477 36.567 64.7758 36.567H67.5685C68.0118 36.567 68.3887 36.2551 68.4575 35.8319L70.1331 25.5712C70.1804 25.2878 69.9805 25.0207 69.6874 24.9754C69.6593 24.9709 69.6308 24.9686 69.6022 24.9686ZM65.2805 30.8034C64.9814 32.5159 63.5754 33.6657 61.7823 33.6657C60.882 33.6657 60.1625 33.3864 59.7004 32.8572C59.242 32.3317 59.0679 31.5838 59.2139 30.7509C59.4934 29.0528 60.9228 27.8654 62.6883 27.8654C63.5689 27.8654 64.2843 28.1483 64.7557 28.6821C65.2281 29.2212 65.4154 29.9736 65.2801 30.8029L65.2805 30.8034ZM86.1147 24.9686H82.999C82.7007 24.9691 82.4217 25.1121 82.2541 25.3503L77.9572 31.4706L76.1356 25.5893C76.0209 25.2208 75.6702 24.9686 75.2723 24.9686H72.2104C71.9122 24.9677 71.6701 25.2009 71.6692 25.4892C71.6692 25.5472 71.679 25.6042 71.6982 25.659L75.1299 35.3968L71.9038 39.8006C71.731 40.0355 71.7881 40.3615 72.0311 40.5281C72.1224 40.591 72.2319 40.6245 72.3438 40.6245H75.4558C75.7507 40.6245 76.027 40.4855 76.195 40.251L86.5575 25.7876C86.7275 25.5508 86.6666 25.2258 86.4218 25.0614C86.3314 25.0008 86.2242 24.9682 86.1142 24.9682L86.1147 24.9686Z" fill="#253B80"/>
<path d="M96.43 19.1778H89.9547C89.5123 19.1778 89.1354 19.4892 89.0666 19.912L86.4481 35.9654C86.4017 36.2497 86.6021 36.5163 86.8956 36.5611C86.9237 36.5652 86.9518 36.5674 86.9799 36.5674H90.303C90.6129 36.5674 90.876 36.3488 90.9243 36.0532L91.6673 31.5027C91.7356 31.0799 92.1125 30.768 92.5554 30.7676H94.6041C98.8701 30.7676 101.33 28.7721 101.974 24.8174C102.265 23.0872 101.985 21.7278 101.148 20.7758C100.229 19.7305 98.5971 19.1773 96.4304 19.1773L96.43 19.1778ZM97.1767 25.041C96.8237 27.2873 95.0484 27.2873 93.3311 27.2873H92.355L93.0413 23.0922C93.0821 22.8387 93.3077 22.6517 93.5732 22.6517H94.0208C95.1888 22.6517 96.2928 22.6517 96.8626 23.2964C97.2025 23.6807 97.3055 24.252 97.1758 25.041H97.1767ZM115.782 24.9686H112.684C112.419 24.9677 112.192 25.1551 112.152 25.4091L112.015 26.2475L111.797 25.9437C111.126 25.0017 109.63 24.687 108.136 24.687C104.71 24.687 101.785 27.1963 101.215 30.716C100.919 32.4715 101.339 34.1505 102.369 35.3212C103.315 36.3977 104.666 36.8463 106.274 36.8463C109.035 36.8463 110.565 35.1302 110.565 35.1302L110.427 35.9631C110.38 36.2478 110.58 36.5154 110.874 36.5607C110.903 36.5652 110.932 36.5674 110.961 36.567H113.752C114.195 36.567 114.572 36.2551 114.64 35.8318L116.317 25.5711C116.362 25.2859 116.16 25.0189 115.865 24.9749C115.838 24.9709 115.81 24.9686 115.782 24.9691V24.9686ZM111.461 30.8033C111.163 32.5159 109.756 33.6657 107.962 33.6657C107.064 33.6657 106.343 33.3864 105.88 32.8572C105.422 32.3316 105.25 31.5838 105.394 30.7508C105.675 29.0528 107.103 27.8654 108.868 27.8654C109.749 27.8654 110.464 28.1483 110.936 28.682C111.41 29.2212 111.597 29.9736 111.46 30.8029L111.461 30.8033ZM119.437 19.6183L116.78 35.9654C116.734 36.2497 116.934 36.5163 117.228 36.5611C117.256 36.5652 117.284 36.5674 117.312 36.5674H119.983C120.427 36.5674 120.804 36.256 120.872 35.8323L123.493 19.7799C123.539 19.4951 123.338 19.228 123.044 19.1832C123.016 19.1791 122.988 19.1769 122.96 19.1769H119.969C119.703 19.1778 119.478 19.3647 119.437 19.6183H119.437Z" fill="#179BD7"/>
<path d="M13.3795 39.6875L13.8749 36.6463L12.7718 36.6214H7.50537L11.1651 14.1829C11.1875 14.0412 11.314 13.9366 11.4624 13.9375H20.3427C23.2907 13.9375 25.3249 14.5305 26.3872 15.7016C26.8854 16.2508 27.2023 16.8248 27.3559 17.4563C27.5169 18.119 27.5197 18.9108 27.3624 19.8768L27.3512 19.9474V20.5663L27.8493 20.8392C28.2295 21.0253 28.5713 21.2774 28.8578 21.5825C29.2838 22.052 29.5591 22.6491 29.6757 23.3566C29.796 24.0846 29.7562 24.9506 29.5591 25.9306C29.332 27.0583 28.9645 28.0406 28.4687 28.8442C28.031 29.5644 27.4425 30.1877 26.7412 30.6748C26.0824 31.1271 25.2992 31.4702 24.4144 31.6902C23.5567 31.9062 22.5786 32.0153 21.5061 32.0153H20.815C20.3207 32.0153 19.8408 32.1873 19.4639 32.496C19.0875 32.8079 18.838 33.2384 18.7598 33.7115L18.7078 33.9854L17.8333 39.3452L17.7935 39.5421C17.7832 39.6046 17.7649 39.6354 17.7387 39.6567C17.7129 39.677 17.6811 39.6884 17.6479 39.6888H13.3809L13.3795 39.6875Z" fill="#253B80"/>
<path d="M28.3203 20.0186C28.2936 20.1824 28.2636 20.3499 28.2295 20.5219C27.0586 26.3359 23.0519 28.344 17.9348 28.344H15.3294C14.7035 28.344 14.1763 28.7836 14.0789 29.3802L12.7451 37.5603L12.3673 39.879C12.3097 40.2307 12.5579 40.5608 12.9216 40.6164C12.9558 40.6219 12.9904 40.6241 13.0256 40.6241H17.6464C18.1937 40.6241 18.6586 40.2398 18.7448 39.7178L18.7902 39.491L19.66 34.1525L19.7157 33.8596C19.8009 33.3358 20.2668 32.9515 20.8141 32.9515H21.5051C25.9822 32.9515 29.487 31.1941 30.5113 26.1082C30.9392 23.9837 30.7178 22.2096 29.5853 20.962C29.2262 20.5758 28.7978 20.2567 28.3203 20.019V20.0186Z" fill="#179BD7"/>
<path d="M27.0954 19.5459C26.7214 19.4413 26.3412 19.3598 25.9564 19.3014C25.1965 19.1887 24.4283 19.1344 23.6595 19.1394H16.6992C16.1519 19.1394 15.6861 19.5246 15.6018 20.0474L14.121 29.1153L14.0784 29.3797C14.1739 28.783 14.7048 28.343 15.3289 28.3435H17.9342C23.0514 28.3435 27.0575 26.334 28.2289 20.5214C28.264 20.3494 28.2935 20.1819 28.3197 20.018C28.0107 19.8614 27.6886 19.7301 27.3567 19.6255C27.2696 19.5975 27.1825 19.5712 27.0945 19.5459H27.0954Z" fill="#222D65"/>
<path d="M15.6019 20.0474C15.6852 19.5241 16.1515 19.1384 16.6993 19.1402H23.6596C24.4841 19.1402 25.2537 19.1922 25.9565 19.3022C26.4317 19.3747 26.9008 19.4824 27.3586 19.6255C27.7042 19.7364 28.0253 19.8672 28.3217 20.0179C28.67 17.8695 28.3189 16.4068 27.1175 15.0823C25.7921 13.6241 23.4016 12.9999 20.3431 12.9999H11.4628C10.8378 12.9999 10.305 13.4394 10.2086 14.037L6.50952 36.7068C6.44351 37.1093 6.72769 37.4873 7.1439 37.5511C7.18322 37.557 7.22255 37.5602 7.26234 37.5602H12.7446L14.1211 29.1157L15.6019 20.0478V20.0474Z" fill="#253B80"/>
</svg>
