<svg width="130" height="52" viewBox="0 0 130 52" fill="none" xmlns="http://www.w3.org/2000/svg">
<path d="M84.0117 12.7256C89.1216 12.7256 93.9395 17.4627 93.9688 26.1582C93.9688 35.6635 89.2092 39.9814 83.9824 39.9814C81.4132 39.9813 79.8656 38.8723 78.8145 38.0928L78.7852 46.5781L71.4854 48.167V13.2051H77.9092L78.2891 15.0645C79.311 14.105 81.1503 12.7257 84.0117 12.7256ZM21.7295 12.7256C24.1531 12.7256 26.5481 13.115 28.9717 14.1045V21.1514C26.7525 19.922 23.9487 19.2314 21.7295 19.2314C20.1821 19.2315 19.248 19.6822 19.248 20.8516C19.2491 24.2093 30.3731 22.6206 30.4023 31.5557C30.4023 36.9229 26.2267 40.0116 20.1533 40.0117C17.6422 40.0117 14.8972 39.5021 12.1816 38.3027V31.166C14.6344 32.5453 17.7298 33.5645 20.1533 33.5645C21.7884 33.5644 22.9561 33.1146 22.9561 31.7354C22.9554 28.1675 11.8604 29.4865 11.8604 21.2109C11.8604 15.9037 15.8022 12.7257 21.7295 12.7256ZM38.957 13.2354H44.5049V19.6221H38.957V30.2666C38.9572 34.7039 43.5702 33.3244 44.5049 32.9346V39.0225C43.5412 39.5621 41.7894 40.0117 39.3955 40.0117C35.074 40.0117 31.8332 36.7433 31.833 32.3057L31.8613 8.28711L38.9863 6.72852L38.957 13.2354ZM106.438 12.7256C113.358 12.7256 116.978 18.782 116.979 26.458C116.979 27.1776 116.92 28.7371 116.92 29.127H102.642C102.963 32.6652 105.474 33.6846 108.307 33.6846C111.197 33.6846 113.474 33.0546 115.46 32.0352V38.0322C113.474 39.1716 110.847 39.9814 107.372 39.9814C100.247 39.9814 95.2832 35.4238 95.2832 26.3984C95.2832 18.7823 99.4881 12.7257 106.438 12.7256ZM53.5869 15.4541C55.3097 12.2157 58.7258 12.8755 59.6602 13.2354V20.1318C58.755 19.802 55.8351 19.3819 54.1123 21.6904V39.4717H46.8125V13.2354H53.1191L53.5869 15.4541ZM68.7695 39.4717H61.4404V13.2354H68.7695V39.4717ZM82.2598 19.3818C80.5956 19.3819 79.5443 19.9811 78.7852 20.8506L78.8145 31.9756C79.5152 32.7551 80.5372 33.3847 82.2598 33.3848C84.9461 33.3848 86.7568 30.3861 86.7568 26.3682C86.7568 22.4401 84.9169 19.3818 82.2598 19.3818ZM106.408 18.8115C104.569 18.8116 102.554 20.2213 102.554 23.6094H110.088C110.088 20.2212 108.189 18.8115 106.408 18.8115ZM68.7705 9.33691L61.4414 10.9561V4.83887L68.7705 3.25V9.33691Z" fill="#6461FC"/>
</svg>
