<svg width="130" height="52" viewBox="0 0 130 52" fill="none" xmlns="http://www.w3.org/2000/svg">
<path fill-rule="evenodd" clip-rule="evenodd" d="M38.7233 42.0357H29.7204L22.9692 15.5223C22.6488 14.3027 21.9684 13.2244 20.9676 12.7163C18.47 11.4392 15.7177 10.4229 12.7153 9.91026V8.8895H27.2183C29.22 8.8895 30.7212 10.4229 30.9714 12.2037L34.4742 31.3287L43.4728 8.8895H52.2256L38.7233 42.0357ZM57.2296 42.0357H48.727L55.7283 8.8895H64.2309L57.2296 42.0357ZM75.2312 18.072C75.4814 16.2867 76.9826 15.266 78.734 15.266C81.4863 15.0097 84.4843 15.5222 86.9864 16.7949L88.4876 9.65836C85.9855 8.63759 83.2333 8.125 80.7357 8.125C72.4833 8.125 66.4784 12.7162 66.4784 19.0883C66.4784 23.9358 70.7319 26.4811 73.7343 28.0145C76.9826 29.5434 78.2336 30.5642 77.9834 32.0931C77.9834 34.3866 75.4814 35.4073 72.9837 35.4073C69.9813 35.4073 66.9788 34.6429 64.231 33.3658L62.7297 40.5067C65.7322 41.7794 68.9805 42.292 71.9829 42.292C81.2361 42.5439 86.9864 37.957 86.9864 31.0724C86.9864 22.4025 75.2312 21.8943 75.2312 18.072ZM116.743 42.0357L109.992 8.8895H102.74C101.239 8.8895 99.7379 9.91026 99.2375 11.4392L86.7361 42.0357H95.4889L97.2359 37.1926H107.99L108.991 42.0357H116.743ZM103.991 17.8158L106.489 30.3081H99.4877L103.991 17.8158Z" fill="#172B85"/>
</svg>
