<svg width="62" height="62" viewBox="0 0 62 62" fill="none" xmlns="http://www.w3.org/2000/svg">
<g clip-path="url(#clip0_24_1420)">
<path d="M59.5781 26.9063H52.8708L41.4596 11.1926C41.1139 10.7178 40.6638 10.3286 40.1442 10.0549C39.6245 9.7811 39.0491 9.63007 38.4619 9.61337C37.8748 9.59667 37.2917 9.71474 36.7573 9.95852C36.2229 10.2023 35.7515 10.5653 35.3793 11.0196L32.2923 14.5991L32.2443 14.6544C32.0654 14.8791 31.8381 15.0606 31.5794 15.1853C31.3207 15.31 31.0372 15.3748 30.75 15.3748C30.4628 15.3748 30.1793 15.31 29.9206 15.1853C29.6619 15.0606 29.4346 14.8791 29.2557 14.6544L29.2077 14.5991L26.1207 11.0196C25.7485 10.5653 25.2771 10.2023 24.7427 9.95852C24.2083 9.71474 23.6252 9.59667 23.0381 9.61337C22.4509 9.63007 21.8755 9.7811 21.3558 10.0549C20.8361 10.3286 20.3861 10.7178 20.0404 11.1926L8.62922 26.9063H1.92188C1.41216 26.9063 0.923326 27.1088 0.562904 27.4692C0.202483 27.8297 0 28.3185 0 28.8282C0 29.3379 0.202483 29.8268 0.562904 30.1872C0.923326 30.5476 1.41216 30.7501 1.92188 30.7501H59.5781C60.0878 30.7501 60.5767 30.5476 60.9371 30.1872C61.2975 29.8268 61.5 29.3379 61.5 28.8282C61.5 28.3185 61.2975 27.8297 60.9371 27.4692C60.5767 27.1088 60.0878 26.9063 59.5781 26.9063ZM23.1442 13.4532L23.1898 13.5085L26.2768 17.0856C26.8175 17.7503 27.4995 18.2863 28.2733 18.6544C29.047 19.0224 29.8931 19.2134 30.75 19.2134C31.6069 19.2134 32.453 19.0224 33.2267 18.6544C34.0005 18.2863 34.6825 17.7503 35.2232 17.0856L38.3102 13.5085C38.3246 13.4893 38.3342 13.4724 38.351 13.4532L48.1189 26.9063H13.3787L23.1442 13.4532ZM43.2422 34.5938C41.1152 34.5943 39.0629 35.3785 37.4776 36.7967C35.8924 38.2149 34.8853 40.1675 34.649 42.2813H26.851C26.6141 40.1694 25.6079 38.2187 24.0244 36.8013C22.441 35.384 20.391 34.5992 18.2659 34.5969C16.1407 34.5946 14.0891 35.3748 12.5025 36.7887C10.916 38.2026 9.90553 40.1512 9.66404 42.2626C9.42254 44.374 9.96691 46.5004 11.1933 48.236C12.4196 49.9716 14.2421 51.195 16.3129 51.6726C18.3837 52.1502 20.5578 51.8486 22.4204 50.8254C24.2831 49.8022 25.7037 48.129 26.4114 46.1251H35.0886C35.6171 47.62 36.5464 48.9408 37.7749 49.9432C39.0034 50.9455 40.4838 51.5909 42.0544 51.8087C43.6249 52.0265 45.225 51.8084 46.68 51.1782C48.1349 50.548 49.3886 49.53 50.304 48.2354C51.2194 46.9407 51.7612 45.4194 51.8704 43.8376C51.9795 42.2558 51.6517 40.6745 50.9228 39.2664C50.1939 37.8583 49.0919 36.6778 47.7374 35.8537C46.3828 35.0296 44.8277 34.5938 43.2422 34.5938ZM18.2578 48.047C17.3075 48.047 16.3786 47.7652 15.5885 47.2372C14.7983 46.7093 14.1825 45.9589 13.8189 45.081C13.4552 44.203 13.3601 43.237 13.5454 42.3049C13.7308 41.3729 14.1884 40.5168 14.8604 39.8449C15.5323 39.1729 16.3884 38.7153 17.3205 38.5299C18.2525 38.3445 19.2185 38.4397 20.0965 38.8033C20.9744 39.167 21.7248 39.7828 22.2528 40.5729C22.7807 41.3631 23.0625 42.292 23.0625 43.2423C23.0625 43.8732 22.9382 44.498 22.6968 45.081C22.4553 45.6639 22.1014 46.1936 21.6552 46.6397C21.2091 47.0859 20.6794 47.4398 20.0965 47.6812C19.5136 47.9227 18.8888 48.047 18.2578 48.047ZM43.2422 48.047C42.2919 48.047 41.363 47.7652 40.5728 47.2372C39.7827 46.7093 39.1669 45.9589 38.8032 45.081C38.4396 44.203 38.3444 43.237 38.5298 42.3049C38.7152 41.3729 39.1728 40.5168 39.8448 39.8449C40.5167 39.1729 41.3728 38.7153 42.3048 38.5299C43.2369 38.3445 44.2029 38.4397 45.0809 38.8033C45.9588 39.167 46.7092 39.7828 47.2371 40.5729C47.7651 41.3631 48.0469 42.292 48.0469 43.2423C48.0469 44.5166 47.5407 45.7387 46.6396 46.6397C45.7386 47.5408 44.5165 48.047 43.2422 48.047Z" fill="white"/>
</g>
<defs>
<clipPath id="clip0_24_1420">
<rect width="61.5" height="61.5" fill="white"/>
</clipPath>
</defs>
</svg>
