<svg width="26" height="26" viewBox="0 0 26 26" fill="none" xmlns="http://www.w3.org/2000/svg">
<path d="M1.85165 9.55067C2.52425 10.0001 3.46055 10.0001 5.33317 10.0001C7.20579 10.0001 8.14209 10.0001 8.81469 9.55067C9.10586 9.35611 9.35587 9.10611 9.55042 8.81494C9.99984 8.14234 9.99984 7.20603 9.99984 5.33341C9.99984 3.4608 9.99984 2.52449 9.55042 1.85189C9.35587 1.56072 9.10586 1.31072 8.81469 1.11616C8.14209 0.666748 7.20579 0.666748 5.33317 0.666748C3.46055 0.666748 2.52425 0.666748 1.85165 1.11616C1.56048 1.31072 1.31047 1.56072 1.11592 1.85189C0.666504 2.52449 0.666504 3.4608 0.666504 5.33341C0.666504 7.20603 0.666504 8.14234 1.11592 8.81494C1.31047 9.10611 1.56048 9.35611 1.85165 9.55067Z" stroke="#09090B" stroke-width="1.33333" stroke-linejoin="round"/>
<path d="M16.5182 9.55067C17.1907 10.0001 18.1271 10.0001 19.9997 10.0001C21.8723 10.0001 22.8086 10.0001 23.4812 9.55067C23.7724 9.35611 24.0224 9.10611 24.2169 8.81494C24.6663 8.14234 24.6663 7.20603 24.6663 5.33341C24.6663 3.4608 24.6663 2.52449 24.2169 1.85189C24.0224 1.56072 23.7724 1.31072 23.4812 1.11616C22.8086 0.666748 21.8723 0.666748 19.9997 0.666748C18.1271 0.666748 17.1907 0.666748 16.5182 1.11616C16.227 1.31072 15.977 1.56072 15.7824 1.85189C15.333 2.52449 15.333 3.4608 15.333 5.33341C15.333 7.20603 15.333 8.14234 15.7824 8.81494C15.977 9.10611 16.227 9.35611 16.5182 9.55067Z" stroke="#09090B" stroke-width="1.33333" stroke-linejoin="round"/>
<path d="M1.85165 24.2174C2.52425 24.6668 3.46055 24.6668 5.33317 24.6668C7.20579 24.6668 8.14209 24.6668 8.81469 24.2174C9.10586 24.0229 9.35587 23.7729 9.55042 23.4817C9.99984 22.8091 9.99984 21.8728 9.99984 20.0002C9.99984 18.1275 9.99984 17.1912 9.55042 16.5186C9.35587 16.2275 9.10586 15.9775 8.81469 15.7829C8.14209 15.3335 7.20579 15.3335 5.33317 15.3335C3.46055 15.3335 2.52425 15.3335 1.85165 15.7829C1.56048 15.9775 1.31047 16.2275 1.11592 16.5186C0.666504 17.1912 0.666504 18.1275 0.666504 20.0002C0.666504 21.8728 0.666504 22.8091 1.11592 23.4817C1.31047 23.7729 1.56048 24.0229 1.85165 24.2174Z" stroke="#09090B" stroke-width="1.33333" stroke-linejoin="round"/>
<path d="M16.5182 24.2174C17.1907 24.6668 18.1271 24.6668 19.9997 24.6668C21.8723 24.6668 22.8086 24.6668 23.4812 24.2174C23.7724 24.0229 24.0224 23.7729 24.2169 23.4817C24.6663 22.8091 24.6663 21.8728 24.6663 20.0002C24.6663 18.1275 24.6663 17.1912 24.2169 16.5186C24.0224 16.2275 23.7724 15.9775 23.4812 15.7829C22.8086 15.3335 21.8723 15.3335 19.9997 15.3335C18.1271 15.3335 17.1907 15.3335 16.5182 15.7829C16.227 15.9775 15.977 16.2275 15.7824 16.5186C15.333 17.1912 15.333 18.1275 15.333 20.0002C15.333 21.8728 15.333 22.8091 15.7824 23.4817C15.977 23.7729 16.227 24.0229 16.5182 24.2174Z" stroke="#09090B" stroke-width="1.33333" stroke-linejoin="round"/>
</svg>
